<?xml version="1.0" encoding="utf-8"?>
<!-- Generator: Adobe Illustrator 16.0.3, SVG Export Plug-In . SVG Version: 6.00 Build 0)  -->
<!DOCTYPE svg PUBLIC "-//W3C//DTD SVG 1.1//EN" "http://www.w3.org/Graphics/SVG/1.1/DTD/svg11.dtd">
<svg version="1.1" id="图层_1" xmlns:sketch="http://www.bohemiancoding.com/sketch/ns"
	 xmlns="http://www.w3.org/2000/svg" xmlns:xlink="http://www.w3.org/1999/xlink" x="0px" y="0px" width="210px" height="210px"
	 viewBox="0 0 210 210" enable-background="new 0 0 210 210" xml:space="preserve">
<title>Slice 1</title>
<desc>Created with Sketch.</desc>
<g>
	<g>
		<path fill="#FFFFFF" d="M209.747,120.292c-1.518-14.416-7.323-25.563-17.258-33.131c-6.273-4.779-12.853-7.027-17.342-8.233
			c-0.657-3.778-1.876-8.864-4.604-13.628c-4.958-8.65-13.035-13.225-23.359-13.227c-4.183,0-8.645,0.74-13.514,2.248
			c-7.462-9.518-24.443-27.088-48.124-27.088c-8.668,0-17.355,2.389-25.822,7.1C46.503,41.69,37.495,53.542,33.676,68.605
			c-1.242,4.898-1.742,9.359-1.906,12.88c-3.494,1.145-7.813,2.924-12.15,5.64C6.213,95.521-0.566,108.396,0.014,124.362
			c1.045,28.736,23.435,40.844,24.387,41.346c1.254,0.658,2.65,1.004,4.067,1.004c0.001,0,0.003,0,0.005,0l96.579-0.053
			l12.431,13.332c1.687,1.809,4.015,2.775,6.389,2.775c1.144,0,2.277-0.273,3.396-0.688c3.005-1.111,5.502-4.809,5.324-8.471
			c-0.105-2.164-0.166-4.443-0.181-6.449c1.809,0.02,3.819,0.059,5.908,0.1c3.412,0.066,6.942,0.137,10.069,0.137
			c6.939,0,9.748-0.311,12.019-1.328c0.124-0.057,0.293-0.125,0.499-0.211C208.939,154.13,211.009,132.276,209.747,120.292z
			 M176.832,158.099c-0.973,0.438-4.285,0.564-8.444,0.564c-5.865,0-13.415-0.254-18.473-0.254c-1.147,0-2.312,0.002-3.318,0.006
			c-0.004,1.602-1.284,2.896-2.876,2.936l0.147,12.684l-13.791-14.787c-0.002,0-0.003,0-0.005,0c-1.061,0-1.994-0.523-2.573-1.32
			l-99.031,0.053c0,0-18.854-9.922-19.727-33.936C7.798,98.112,30.758,90.511,38.269,88.72c0.016-1.283,0.969-2.332,2.207-2.512
			c-0.277-7.16,0.574-31.49,23.495-44.244c7.689-4.279,14.919-5.999,21.576-5.998c23.028,0,39.178,20.578,43.634,26.96
			c0.378-0.216,0.812-0.351,1.28-0.351c0.966,0,1.799,0.533,2.247,1.314c5.753-2.169,10.521-3.086,14.476-3.084
			c17.153,0.002,19.024,17.148,19.894,23.107c1.213,0.221,2.134,1.273,2.146,2.547c6.456,1.57,28.783,5.702,31.841,34.746
			C203.918,148.323,180.003,156.677,176.832,158.099z"/>
		<path fill="#FFFFFF" d="M40.476,86.208c-1.238,0.18-2.191,1.229-2.207,2.512"/>
		<path fill="#FFFFFF" d="M127.499,157.927c0.579,0.797,1.513,1.32,2.573,1.32c0.002,0,0.003,0,0.005,0"/>
		<polygon fill="#FFFFFF" points="84.593,91.081 51.412,106.144 49.229,117.276 78.044,130.374 79.572,119.241 63.636,112.038 
			82.847,102.869 		"/>
		<polygon fill="#FFFFFF" points="119.521,78.201 88.304,145.438 99.219,145.438 130.218,78.201 		"/>
		<polygon fill="#FFFFFF" points="131.746,130.374 164.928,117.714 166.02,107.453 137.641,91.081 135.894,103.087 152.048,111.819 
			132.619,119.024 		"/>
	</g>
	<path fill="#FFFFFF" d="M146.598,158.409c0,1.627-1.25,2.941-2.877,2.941c0,1.627,1.249,2.953,2.877,2.953s2.946-1.32,2.946-2.947
		S148.226,158.409,146.598,158.409z"/>
	<path fill="#FFFFFF" d="M146.598,158.409c-1.628,0-2.877,1.313-2.877,2.941C145.348,161.351,146.598,160.036,146.598,158.409z"/>
	<path fill="#FFFFFF" d="M127.503,157.931c-0.013,0-0.024-0.004-0.037-0.004c-1.76,0-3.188,1.428-3.188,3.188
		c0,1.762,1.428,3.189,3.188,3.189c1.762,0,3.188-1.428,3.188-3.189c0-0.701-0.234-1.344-0.618-1.871
		C128.992,159.231,128.076,158.716,127.503,157.931z"/>
	<path fill="#FFFFFF" d="M127.499,157.927c0.572,0.785,1.676,1.459,2.719,1.471C129.645,158.612,128.542,157.938,127.499,157.927z"
		/>
	<path fill="#FFFFFF" d="M40.426,86.212c0-0.014,0.004-0.027,0.004-0.041c0-1.428-1.156-2.584-2.583-2.584
		c-1.427,0-2.583,1.156-2.583,2.584c0,1.426,1.156,2.582,2.583,2.582c0.145,0,0.284-0.02,0.422-0.043
		C38.291,87.448,39.216,86.413,40.426,86.212z"/>
	<path fill="#FFFFFF" d="M40.476,86.208c-1.21,0.199-2.186,1.25-2.207,2.512C39.479,88.521,40.455,87.47,40.476,86.208z"/>
	<path fill="#FFFFFF" d="M169.873,80.986c-1.541,0-2.79,1.249-2.79,2.79c0,0.064,0.014,0.123,0.019,0.186
		c1.108,0.288,1.931,1.276,1.954,2.469c0.261,0.08,0.53,0.137,0.817,0.137c1.542,0,2.79-1.25,2.79-2.791
		S171.415,80.986,169.873,80.986z"/>
	<path fill="#FFFFFF" d="M167.102,83.962c0.078,1.172,0.873,2.137,1.954,2.469C169.519,85.196,168.573,84.114,167.102,83.962z"/>
	<path fill="#FFFFFF" d="M134.008,61.611c0-1.437-1.165-2.601-2.602-2.601s-2.602,1.164-2.602,2.601c0,0.483,0.141,0.93,0.37,1.317
		c0.381-0.219,0.815-0.354,1.286-0.354c0.953,0,1.778,0.52,2.23,1.285C133.475,63.411,134.008,62.577,134.008,61.611z"/>
	<path fill="#FFFFFF" d="M130.461,62.575c-0.471,0-0.905,0.135-1.286,0.354c0.453,0.766,1.277,1.284,2.231,1.284
		c0.471,0,1.369-0.272,1.749-0.49C132.704,62.958,131.414,62.575,130.461,62.575z"/>
</g>
</svg>
